<svg width="400" height="110" viewBox="0 0 400 110" fill="none" xmlns="http://www.w3.org/2000/svg">
<g filter="url(#filter0_d_3_10)">
<path d="M136.93 26.3672H148.375C150.641 26.3672 152.327 26.4648 153.434 26.6602C154.553 26.8424 155.549 27.2331 156.422 27.832C157.307 28.431 158.043 29.2318 158.629 30.2344C159.215 31.224 159.508 32.3372 159.508 33.5742C159.508 34.9154 159.143 36.1458 158.414 37.2656C157.698 38.3854 156.721 39.2253 155.484 39.7852C157.229 40.293 158.57 41.1589 159.508 42.3828C160.445 43.6068 160.914 45.0456 160.914 46.6992C160.914 48.0013 160.608 49.2708 159.996 50.5078C159.397 51.7318 158.57 52.7148 157.516 53.457C156.474 54.1862 155.185 54.6354 153.648 54.8047C152.685 54.9089 150.361 54.974 146.676 55H136.93V26.3672ZM142.711 31.1328V37.7539H146.5C148.753 37.7539 150.152 37.7214 150.699 37.6562C151.689 37.5391 152.464 37.2005 153.023 36.6406C153.596 36.0677 153.883 35.319 153.883 34.3945C153.883 33.5091 153.635 32.793 153.141 32.2461C152.659 31.6862 151.936 31.3477 150.973 31.2305C150.4 31.1654 148.753 31.1328 146.031 31.1328H142.711ZM142.711 42.5195V50.1758H148.062C150.146 50.1758 151.467 50.1172 152.027 50C152.887 49.8438 153.583 49.4661 154.117 48.8672C154.664 48.2552 154.938 47.4414 154.938 46.4258C154.938 45.5664 154.729 44.8372 154.312 44.2383C153.896 43.6393 153.29 43.2031 152.496 42.9297C151.715 42.6562 150.009 42.5195 147.379 42.5195H142.711ZM169.879 40.5859L164.898 39.6875C165.458 37.6823 166.422 36.1979 167.789 35.2344C169.156 34.2708 171.188 33.7891 173.883 33.7891C176.331 33.7891 178.154 34.082 179.352 34.668C180.549 35.2409 181.389 35.9766 181.871 36.875C182.366 37.7604 182.613 39.3945 182.613 41.7773L182.555 48.1836C182.555 50.0065 182.639 51.3542 182.809 52.2266C182.991 53.0859 183.323 54.0104 183.805 55H178.375C178.232 54.6354 178.056 54.0951 177.848 53.3789C177.757 53.0534 177.691 52.8385 177.652 52.7344C176.715 53.6458 175.712 54.3294 174.645 54.7852C173.577 55.2409 172.438 55.4688 171.227 55.4688C169.091 55.4688 167.405 54.8893 166.168 53.7305C164.944 52.5716 164.332 51.1068 164.332 49.3359C164.332 48.1641 164.612 47.1224 165.172 46.2109C165.732 45.2865 166.513 44.5833 167.516 44.1016C168.531 43.6068 169.99 43.1771 171.891 42.8125C174.456 42.3307 176.233 41.8815 177.223 41.4648V40.918C177.223 39.8633 176.962 39.1146 176.441 38.6719C175.921 38.2161 174.938 37.9883 173.492 37.9883C172.516 37.9883 171.754 38.1836 171.207 38.5742C170.66 38.9518 170.217 39.6224 169.879 40.5859ZM177.223 45.0391C176.52 45.2734 175.406 45.5534 173.883 45.8789C172.359 46.2044 171.363 46.5234 170.895 46.8359C170.178 47.3438 169.82 47.9883 169.82 48.7695C169.82 49.5378 170.107 50.2018 170.68 50.7617C171.253 51.3216 171.982 51.6016 172.867 51.6016C173.857 51.6016 174.801 51.276 175.699 50.625C176.363 50.1302 176.799 49.5247 177.008 48.8086C177.151 48.3398 177.223 47.4479 177.223 46.1328V45.0391ZM206.129 40.3906L200.719 41.3672C200.536 40.2865 200.12 39.4727 199.469 38.9258C198.831 38.3789 197.997 38.1055 196.969 38.1055C195.602 38.1055 194.508 38.5807 193.688 39.5312C192.88 40.4688 192.477 42.0443 192.477 44.2578C192.477 46.7188 192.887 48.457 193.707 49.4727C194.54 50.4883 195.654 50.9961 197.047 50.9961C198.089 50.9961 198.941 50.7031 199.605 50.1172C200.27 49.5182 200.738 48.4961 201.012 47.0508L206.402 47.9688C205.842 50.4427 204.768 52.3112 203.18 53.5742C201.591 54.8372 199.462 55.4688 196.793 55.4688C193.759 55.4688 191.337 54.5117 189.527 52.5977C187.73 50.6836 186.832 48.0339 186.832 44.6484C186.832 41.224 187.737 38.5612 189.547 36.6602C191.357 34.7461 193.805 33.7891 196.891 33.7891C199.417 33.7891 201.422 34.3359 202.906 35.4297C204.404 36.5104 205.478 38.1641 206.129 40.3906ZM210.113 55V26.3672H215.602V41.5625L222.027 34.2578H228.785L221.695 41.8359L229.293 55H223.375L218.16 45.6836L215.602 48.3594V55H210.113ZM243.57 55V26.3672H249.352V55H243.57ZM273.707 55H268.219V44.4141C268.219 42.1745 268.102 40.7292 267.867 40.0781C267.633 39.4141 267.249 38.8997 266.715 38.5352C266.194 38.1706 265.562 37.9883 264.82 37.9883C263.87 37.9883 263.017 38.2487 262.262 38.7695C261.507 39.2904 260.986 39.9805 260.699 40.8398C260.426 41.6992 260.289 43.2878 260.289 45.6055V55H254.801V34.2578H259.898V37.3047C261.708 34.9609 263.987 33.7891 266.734 33.7891C267.945 33.7891 269.052 34.0104 270.055 34.4531C271.057 34.8828 271.812 35.4362 272.32 36.1133C272.841 36.7904 273.199 37.5586 273.395 38.418C273.603 39.2773 273.707 40.5078 273.707 42.1094V55ZM289 45.6836L294.625 45.1367C294.964 47.0247 295.647 48.4115 296.676 49.2969C297.717 50.1823 299.117 50.625 300.875 50.625C302.737 50.625 304.137 50.2344 305.074 49.4531C306.025 48.6589 306.5 47.7344 306.5 46.6797C306.5 46.0026 306.298 45.4297 305.895 44.9609C305.504 44.4792 304.814 44.0625 303.824 43.7109C303.147 43.4766 301.604 43.0599 299.195 42.4609C296.096 41.6927 293.922 40.7487 292.672 39.6289C290.914 38.0534 290.035 36.1328 290.035 33.8672C290.035 32.4089 290.445 31.0482 291.266 29.7852C292.099 28.5091 293.29 27.5391 294.84 26.875C296.402 26.2109 298.284 25.8789 300.484 25.8789C304.078 25.8789 306.78 26.6667 308.59 28.2422C310.413 29.8177 311.37 31.9206 311.461 34.5508L305.68 34.8047C305.432 33.3333 304.898 32.2786 304.078 31.6406C303.271 30.9896 302.053 30.6641 300.426 30.6641C298.746 30.6641 297.431 31.0091 296.48 31.6992C295.868 32.1419 295.562 32.7344 295.562 33.4766C295.562 34.1536 295.849 34.7331 296.422 35.2148C297.151 35.8268 298.922 36.4648 301.734 37.1289C304.547 37.793 306.624 38.4831 307.965 39.1992C309.319 39.9023 310.374 40.8724 311.129 42.1094C311.897 43.3333 312.281 44.8503 312.281 46.6602C312.281 48.3008 311.826 49.8372 310.914 51.2695C310.003 52.7018 308.714 53.7695 307.047 54.4727C305.38 55.1628 303.303 55.5078 300.816 55.5078C297.197 55.5078 294.417 54.6745 292.477 53.0078C290.536 51.3281 289.378 48.8867 289 45.6836ZM326.617 34.2578V38.6328H322.867V46.9922C322.867 48.6849 322.9 49.6745 322.965 49.9609C323.043 50.2344 323.206 50.4622 323.453 50.6445C323.714 50.8268 324.026 50.918 324.391 50.918C324.898 50.918 325.634 50.7422 326.598 50.3906L327.066 54.6484C325.79 55.1953 324.345 55.4688 322.73 55.4688C321.741 55.4688 320.849 55.306 320.055 54.9805C319.26 54.6419 318.674 54.2122 318.297 53.6914C317.932 53.1576 317.678 52.4414 317.535 51.543C317.418 50.9049 317.359 49.6159 317.359 47.6758V38.6328H314.84V34.2578H317.359V30.1367L322.867 26.9336V34.2578H326.617ZM329.156 44.3359C329.156 42.513 329.605 40.7487 330.504 39.043C331.402 37.3372 332.672 36.0352 334.312 35.1367C335.966 34.2383 337.809 33.7891 339.84 33.7891C342.978 33.7891 345.549 34.8112 347.555 36.8555C349.56 38.8867 350.562 41.4583 350.562 44.5703C350.562 47.7083 349.547 50.3125 347.516 52.3828C345.497 54.4401 342.952 55.4688 339.879 55.4688C337.978 55.4688 336.161 55.0391 334.43 54.1797C332.711 53.3203 331.402 52.0638 330.504 50.4102C329.605 48.7435 329.156 46.7188 329.156 44.3359ZM334.781 44.6289C334.781 46.6862 335.27 48.2617 336.246 49.3555C337.223 50.4492 338.427 50.9961 339.859 50.9961C341.292 50.9961 342.49 50.4492 343.453 49.3555C344.43 48.2617 344.918 46.6732 344.918 44.5898C344.918 42.5586 344.43 40.9961 343.453 39.9023C342.49 38.8086 341.292 38.2617 339.859 38.2617C338.427 38.2617 337.223 38.8086 336.246 39.9023C335.27 40.9961 334.781 42.5716 334.781 44.6289ZM372.965 40.3906L367.555 41.3672C367.372 40.2865 366.956 39.4727 366.305 38.9258C365.667 38.3789 364.833 38.1055 363.805 38.1055C362.438 38.1055 361.344 38.5807 360.523 39.5312C359.716 40.4688 359.312 42.0443 359.312 44.2578C359.312 46.7188 359.723 48.457 360.543 49.4727C361.376 50.4883 362.49 50.9961 363.883 50.9961C364.924 50.9961 365.777 50.7031 366.441 50.1172C367.105 49.5182 367.574 48.4961 367.848 47.0508L373.238 47.9688C372.678 50.4427 371.604 52.3112 370.016 53.5742C368.427 54.8372 366.298 55.4688 363.629 55.4688C360.595 55.4688 358.173 54.5117 356.363 52.5977C354.566 50.6836 353.668 48.0339 353.668 44.6484C353.668 41.224 354.573 38.5612 356.383 36.6602C358.193 34.7461 360.641 33.7891 363.727 33.7891C366.253 33.7891 368.258 34.3359 369.742 35.4297C371.24 36.5104 372.314 38.1641 372.965 40.3906ZM376.949 55V26.3672H382.438V41.5625L388.863 34.2578H395.621L388.531 41.8359L396.129 55H390.211L384.996 45.6836L382.438 48.3594V55H376.949Z" fill="#7D57A4"/>
</g>
<g filter="url(#filter1_d_3_10)">
<path d="M156.969 101V72.3672H162.594L174.312 91.4883V72.3672H179.684V101H173.883L162.34 82.3281V101H156.969ZM184.508 90.3359C184.508 88.513 184.957 86.7487 185.855 85.043C186.754 83.3372 188.023 82.0352 189.664 81.1367C191.318 80.2383 193.16 79.7891 195.191 79.7891C198.329 79.7891 200.901 80.8112 202.906 82.8555C204.911 84.8867 205.914 87.4583 205.914 90.5703C205.914 93.7083 204.898 96.3125 202.867 98.3828C200.849 100.44 198.303 101.469 195.23 101.469C193.329 101.469 191.513 101.039 189.781 100.18C188.062 99.3203 186.754 98.0638 185.855 96.4102C184.957 94.7435 184.508 92.7188 184.508 90.3359ZM190.133 90.6289C190.133 92.6862 190.621 94.2617 191.598 95.3555C192.574 96.4492 193.779 96.9961 195.211 96.9961C196.643 96.9961 197.841 96.4492 198.805 95.3555C199.781 94.2617 200.27 92.6732 200.27 90.5898C200.27 88.5586 199.781 86.9961 198.805 85.9023C197.841 84.8086 196.643 84.2617 195.211 84.2617C193.779 84.2617 192.574 84.8086 191.598 85.9023C190.621 86.9961 190.133 88.5716 190.133 90.6289ZM219.742 80.2578V84.6328H215.992V92.9922C215.992 94.6849 216.025 95.6745 216.09 95.9609C216.168 96.2344 216.331 96.4622 216.578 96.6445C216.839 96.8268 217.151 96.918 217.516 96.918C218.023 96.918 218.759 96.7422 219.723 96.3906L220.191 100.648C218.915 101.195 217.47 101.469 215.855 101.469C214.866 101.469 213.974 101.306 213.18 100.98C212.385 100.642 211.799 100.212 211.422 99.6914C211.057 99.1576 210.803 98.4414 210.66 97.543C210.543 96.9049 210.484 95.6159 210.484 93.6758V84.6328H207.965V80.2578H210.484V76.1367L215.992 72.9336V80.2578H219.742ZM223.551 77.4453V72.3672H229.039V77.4453H223.551ZM223.551 101V80.2578H229.039V101H223.551ZM232.281 80.2578H235.328V78.6953C235.328 76.9505 235.51 75.6484 235.875 74.7891C236.253 73.9297 236.936 73.2331 237.926 72.6992C238.928 72.1523 240.191 71.8789 241.715 71.8789C243.277 71.8789 244.807 72.1133 246.305 72.582L245.562 76.4102C244.69 76.2018 243.85 76.0977 243.043 76.0977C242.249 76.0977 241.676 76.2865 241.324 76.6641C240.986 77.0286 240.816 77.7383 240.816 78.793V80.2578H244.918V84.5742H240.816V101H235.328V84.5742H232.281V80.2578ZM248.004 77.4453V72.3672H253.492V77.4453H248.004ZM248.004 101V80.2578H253.492V101H248.004ZM277.223 86.3906L271.812 87.3672C271.63 86.2865 271.214 85.4727 270.562 84.9258C269.924 84.3789 269.091 84.1055 268.062 84.1055C266.695 84.1055 265.602 84.5807 264.781 85.5312C263.974 86.4688 263.57 88.0443 263.57 90.2578C263.57 92.7188 263.98 94.457 264.801 95.4727C265.634 96.4883 266.747 96.9961 268.141 96.9961C269.182 96.9961 270.035 96.7031 270.699 96.1172C271.363 95.5182 271.832 94.4961 272.105 93.0508L277.496 93.9688C276.936 96.4427 275.862 98.3112 274.273 99.5742C272.685 100.837 270.556 101.469 267.887 101.469C264.853 101.469 262.431 100.512 260.621 98.5977C258.824 96.6836 257.926 94.0339 257.926 90.6484C257.926 87.224 258.831 84.5612 260.641 82.6602C262.451 80.7461 264.898 79.7891 267.984 79.7891C270.51 79.7891 272.516 80.3359 274 81.4297C275.497 82.5104 276.572 84.1641 277.223 86.3906ZM285.504 86.5859L280.523 85.6875C281.083 83.6823 282.047 82.1979 283.414 81.2344C284.781 80.2708 286.812 79.7891 289.508 79.7891C291.956 79.7891 293.779 80.082 294.977 80.668C296.174 81.2409 297.014 81.9766 297.496 82.875C297.991 83.7604 298.238 85.3945 298.238 87.7773L298.18 94.1836C298.18 96.0065 298.264 97.3542 298.434 98.2266C298.616 99.0859 298.948 100.01 299.43 101H294C293.857 100.635 293.681 100.095 293.473 99.3789C293.382 99.0534 293.316 98.8385 293.277 98.7344C292.34 99.6458 291.337 100.329 290.27 100.785C289.202 101.241 288.062 101.469 286.852 101.469C284.716 101.469 283.03 100.889 281.793 99.7305C280.569 98.5716 279.957 97.1068 279.957 95.3359C279.957 94.1641 280.237 93.1224 280.797 92.2109C281.357 91.2865 282.138 90.5833 283.141 90.1016C284.156 89.6068 285.615 89.1771 287.516 88.8125C290.081 88.3307 291.858 87.8815 292.848 87.4648V86.918C292.848 85.8633 292.587 85.1146 292.066 84.6719C291.546 84.2161 290.562 83.9883 289.117 83.9883C288.141 83.9883 287.379 84.1836 286.832 84.5742C286.285 84.9518 285.842 85.6224 285.504 86.5859ZM292.848 91.0391C292.145 91.2734 291.031 91.5534 289.508 91.8789C287.984 92.2044 286.988 92.5234 286.52 92.8359C285.803 93.3438 285.445 93.9883 285.445 94.7695C285.445 95.5378 285.732 96.2018 286.305 96.7617C286.878 97.3216 287.607 97.6016 288.492 97.6016C289.482 97.6016 290.426 97.276 291.324 96.625C291.988 96.1302 292.424 95.5247 292.633 94.8086C292.776 94.3398 292.848 93.4479 292.848 92.1328V91.0391ZM313.18 80.2578V84.6328H309.43V92.9922C309.43 94.6849 309.462 95.6745 309.527 95.9609C309.605 96.2344 309.768 96.4622 310.016 96.6445C310.276 96.8268 310.589 96.918 310.953 96.918C311.461 96.918 312.197 96.7422 313.16 96.3906L313.629 100.648C312.353 101.195 310.908 101.469 309.293 101.469C308.303 101.469 307.411 101.306 306.617 100.98C305.823 100.642 305.237 100.212 304.859 99.6914C304.495 99.1576 304.241 98.4414 304.098 97.543C303.98 96.9049 303.922 95.6159 303.922 93.6758V84.6328H301.402V80.2578H303.922V76.1367L309.43 72.9336V80.2578H313.18ZM316.988 77.4453V72.3672H322.477V77.4453H316.988ZM316.988 101V80.2578H322.477V101H316.988ZM326.852 90.3359C326.852 88.513 327.301 86.7487 328.199 85.043C329.098 83.3372 330.367 82.0352 332.008 81.1367C333.661 80.2383 335.504 79.7891 337.535 79.7891C340.673 79.7891 343.245 80.8112 345.25 82.8555C347.255 84.8867 348.258 87.4583 348.258 90.5703C348.258 93.7083 347.242 96.3125 345.211 98.3828C343.193 100.44 340.647 101.469 337.574 101.469C335.673 101.469 333.857 101.039 332.125 100.18C330.406 99.3203 329.098 98.0638 328.199 96.4102C327.301 94.7435 326.852 92.7188 326.852 90.3359ZM332.477 90.6289C332.477 92.6862 332.965 94.2617 333.941 95.3555C334.918 96.4492 336.122 96.9961 337.555 96.9961C338.987 96.9961 340.185 96.4492 341.148 95.3555C342.125 94.2617 342.613 92.6732 342.613 90.5898C342.613 88.5586 342.125 86.9961 341.148 85.9023C340.185 84.8086 338.987 84.2617 337.555 84.2617C336.122 84.2617 334.918 84.8086 333.941 85.9023C332.965 86.9961 332.477 88.5716 332.477 90.6289ZM371.441 101H365.953V90.4141C365.953 88.1745 365.836 86.7292 365.602 86.0781C365.367 85.4141 364.983 84.8997 364.449 84.5352C363.928 84.1706 363.297 83.9883 362.555 83.9883C361.604 83.9883 360.751 84.2487 359.996 84.7695C359.241 85.2904 358.72 85.9805 358.434 86.8398C358.16 87.6992 358.023 89.2878 358.023 91.6055V101H352.535V80.2578H357.633V83.3047C359.443 80.9609 361.721 79.7891 364.469 79.7891C365.68 79.7891 366.786 80.0104 367.789 80.4531C368.792 80.8828 369.547 81.4362 370.055 82.1133C370.576 82.7904 370.934 83.5586 371.129 84.418C371.337 85.2773 371.441 86.5078 371.441 88.1094V101ZM375.094 95.082L380.602 94.2422C380.836 95.3099 381.311 96.1237 382.027 96.6836C382.743 97.2305 383.746 97.5039 385.035 97.5039C386.454 97.5039 387.522 97.2435 388.238 96.7227C388.72 96.3581 388.961 95.8698 388.961 95.2578C388.961 94.8411 388.831 94.4961 388.57 94.2227C388.297 93.9622 387.685 93.7214 386.734 93.5C382.307 92.5234 379.501 91.6315 378.316 90.8242C376.676 89.7044 375.855 88.1484 375.855 86.1562C375.855 84.3594 376.565 82.849 377.984 81.625C379.404 80.401 381.604 79.7891 384.586 79.7891C387.424 79.7891 389.534 80.2513 390.914 81.1758C392.294 82.1003 393.245 83.4674 393.766 85.2773L388.59 86.2344C388.368 85.4271 387.945 84.8086 387.32 84.3789C386.708 83.9492 385.829 83.7344 384.684 83.7344C383.238 83.7344 382.203 83.9362 381.578 84.3398C381.161 84.6263 380.953 84.9974 380.953 85.4531C380.953 85.8438 381.135 86.1758 381.5 86.4492C381.995 86.8138 383.701 87.3281 386.617 87.9922C389.547 88.6562 391.591 89.4701 392.75 90.4336C393.896 91.4102 394.469 92.7708 394.469 94.5156C394.469 96.4167 393.674 98.0508 392.086 99.418C390.497 100.785 388.147 101.469 385.035 101.469C382.21 101.469 379.97 100.896 378.316 99.75C376.676 98.6042 375.602 97.0482 375.094 95.082Z" fill="#7D57A4"/>
</g>
<path fill-rule="evenodd" clip-rule="evenodd" d="M9.96308 0H97.0369C98.3456 -1.81806e-07 99.6415 0.401027 100.851 1.18017C102.06 1.95932 103.158 3.10131 104.083 4.54092C105.009 5.98053 105.742 7.68954 106.243 9.57033C106.743 11.4511 107.001 13.4668 107 15.5023V67.1701C107 69.2048 106.742 71.2195 106.242 73.0991C105.741 74.9788 105.007 76.6866 104.082 78.125C103.156 79.5634 102.058 80.7042 100.849 81.4822C99.6405 82.2602 98.3451 82.6602 97.0369 82.6594H81L107 100.5L49 91L9.95045 82.6594C7.311 82.6542 4.78073 81.0202 2.91514 78.1161C1.04955 75.2121 0.00111346 71.2753 0 67.1701V15.5023C-2.35848e-07 11.392 1.04954 7.4499 2.91786 4.54284C4.78618 1.63578 7.32032 0.00173652 9.96308 0Z" fill="#7D57A4"/>
<path fill-rule="evenodd" clip-rule="evenodd" d="M75.4284 56.43L74.5463 56.6712C72.5528 56.0811 72.6674 45.1319 74.9001 42.7512L78 43.9775C76.2407 46.9944 74.5114 53.7671 75.4284 56.43ZM71.4414 57.6153L70.5543 58.1591C67.0657 53.3874 66.5374 47.9282 68.6306 40.0626L71.885 41.0888C69.5227 47.0252 69.5027 53.3105 71.4414 57.6153ZM63.1335 62.351L34.8858 54.5368L34.0086 49.6624C34.0086 49.6624 39.8346 47.1689 41.0407 42.1663C43.5325 31.9816 48.7106 26.902 56.3856 28.8825C64.0605 30.863 65.9593 37.9026 63.4675 48.1232C62.2514 53.1104 65.9593 57.6204 65.9593 57.6204L63.1335 62.351ZM54.2426 26.2094L55.0649 18L62.9342 19.4366L59.3509 26.9328L54.2426 26.2094ZM29.5333 47.4921L29 46.6558C33.5352 44.1211 34.6814 39.8728 35.3443 36.3941L38.479 37.6819C38.5837 41.0118 34.4771 46.6609 29.5333 47.4921ZM57.4421 63.6799C55.2144 69.9806 45.3217 66.4865 47.5793 60.0883C50.126 61.0478 55.2094 62.8333 57.487 63.6799H57.4421Z" fill="white"/>
<defs>
<filter id="filter0_d_3_10" x="133.93" y="24.8789" width="265.199" height="35.6289" filterUnits="userSpaceOnUse" color-interpolation-filters="sRGB">
<feFlood flood-opacity="0" result="BackgroundImageFix"/>
<feColorMatrix in="SourceAlpha" type="matrix" values="0 0 0 0 0 0 0 0 0 0 0 0 0 0 0 0 0 0 127 0" result="hardAlpha"/>
<feOffset dy="2"/>
<feGaussianBlur stdDeviation="1.5"/>
<feComposite in2="hardAlpha" operator="out"/>
<feColorMatrix type="matrix" values="0 0 0 0 0 0 0 0 0 0 0 0 0 0 0 0 0 0 0.25 0"/>
<feBlend mode="normal" in2="BackgroundImageFix" result="effect1_dropShadow_3_10"/>
<feBlend mode="normal" in="SourceGraphic" in2="effect1_dropShadow_3_10" result="shape"/>
</filter>
<filter id="filter1_d_3_10" x="154.969" y="70.8789" width="241.5" height="33.5898" filterUnits="userSpaceOnUse" color-interpolation-filters="sRGB">
<feFlood flood-opacity="0" result="BackgroundImageFix"/>
<feColorMatrix in="SourceAlpha" type="matrix" values="0 0 0 0 0 0 0 0 0 0 0 0 0 0 0 0 0 0 127 0" result="hardAlpha"/>
<feOffset dy="1"/>
<feGaussianBlur stdDeviation="1"/>
<feComposite in2="hardAlpha" operator="out"/>
<feColorMatrix type="matrix" values="0 0 0 0 0 0 0 0 0 0 0 0 0 0 0 0 0 0 0.25 0"/>
<feBlend mode="normal" in2="BackgroundImageFix" result="effect1_dropShadow_3_10"/>
<feBlend mode="normal" in="SourceGraphic" in2="effect1_dropShadow_3_10" result="shape"/>
</filter>
</defs>
</svg>
